<?xml version="1.0" encoding="iso-8859-1"?>
<!-- Generator: Adobe Illustrator 19.0.0, SVG Export Plug-In . SVG Version: 6.00 Build 0)  -->
<svg version="1.1" id="Layer_1" xmlns="http://www.w3.org/2000/svg" xmlns:xlink="http://www.w3.org/1999/xlink" x="0px" y="0px"
	 viewBox="0 0 512 512" style="enable-background:new 0 0 512 512;" xml:space="preserve">
<g>
	<g>
		<path d="M102.389,274.852v156.31h307.222v-156.31H102.389z M393.415,414.966h-274.83v-75.418h274.83V414.966z M393.415,323.354
			h-274.83v-32.306h274.83V323.354z"/>
	</g>
</g>
<g>
	<g>
		<path d="M431.162,183.238V72.773c0-10.414-8.466-18.884-18.873-18.884h-32.337c-10.407,0-18.873,8.471-18.873,18.884v11.361
			c-17.167-16.075-49.363-38.495-96.98-40.819V16.196h29.627V0h-75.45v16.196h29.627v27.12
			c-47.616,2.323-79.812,24.743-96.98,40.819V72.773c0-10.414-8.466-18.884-18.873-18.884H99.712
			c-10.407,0-18.873,8.471-18.873,18.884v110.465H48.501v261.388c0,16.349,13.305,29.649,29.66,29.649h8.065V512h59.309v-37.725
			h220.931V512h59.309v-37.725h8.065c16.354,0,29.66-13.3,29.66-29.649V183.238H431.162z M377.273,72.773
			c0-1.482,1.201-2.688,2.678-2.688h32.337c1.477,0,2.678,1.206,2.678,2.688v67.341h-37.693V72.773z M377.273,156.31h37.693v26.928
			h-37.693V156.31z M176.354,84.37c23.513-16.63,50.31-25.061,79.646-25.061s56.133,8.433,79.647,25.061
			c6.174,4.366,11.299,8.758,15.364,12.632H160.99C165.055,93.126,170.18,88.735,176.354,84.37z M150.922,113.197h210.155v70.041
			H150.922V113.197z M97.034,72.773c0-1.482,1.201-2.688,2.678-2.688h32.337c1.477,0,2.678,1.206,2.678,2.688v67.341H97.034V72.773z
			 M97.034,156.31h37.693v26.928H97.034V156.31z M129.339,495.804h-26.917v-21.529h26.917V495.804z M409.578,495.804h-26.917
			v-21.529h26.917V495.804z M447.304,444.626c0,7.418-6.04,13.453-13.464,13.453H78.16c-7.424,0-13.464-6.036-13.464-13.453V237.148
			h382.607V444.626z M447.304,220.953H64.696v-21.519h382.607V220.953z"/>
	</g>
</g>
<g>
	<g>
		<rect x="175.162" y="140.114" width="161.676" height="16.196"/>
	</g>
</g>
<g>
</g>
<g>
</g>
<g>
</g>
<g>
</g>
<g>
</g>
<g>
</g>
<g>
</g>
<g>
</g>
<g>
</g>
<g>
</g>
<g>
</g>
<g>
</g>
<g>
</g>
<g>
</g>
<g>
</g>
</svg>
